<svg width="18" height="16" viewBox="0 0 18 16" fill="none" xmlns="http://www.w3.org/2000/svg">
<path d="M17.9953 7.88177C17.9953 8.43704 17.5264 8.872 16.995 8.872H15.9948L16.0166 13.8139C16.0166 13.8972 16.0104 13.9805 16.001 14.0638V14.5635C16.001 15.2453 15.4415 15.7975 14.7507 15.7975H14.2506C14.2162 15.7975 14.1818 15.7975 14.1474 15.7944C14.1036 15.7975 14.0599 15.7975 14.0161 15.7975L13.0002 15.7944H12.25C11.5592 15.7944 10.9997 15.2422 10.9997 14.5604V13.8201V11.8458C10.9997 11.2998 10.5527 10.8586 9.99946 10.8586H7.99894C7.44568 10.8586 6.99868 11.2998 6.99868 11.8458V13.8201V14.5604C6.99868 15.2422 6.43917 15.7944 5.74836 15.7944H4.99817H4.00103C3.95415 15.7944 3.90726 15.7913 3.86037 15.7882C3.82286 15.7913 3.78535 15.7944 3.74784 15.7944H3.24771C2.55691 15.7944 1.99739 15.2422 1.99739 14.5604V11.1054C1.99739 11.0777 1.99739 11.0468 2.00052 11.0191V8.86892H1.00026C0.437613 8.86892 0 8.43704 0 7.87868C0 7.60105 0.0937742 7.35426 0.312581 7.13832L8.32403 0.246787C8.54283 0.0308484 8.7929 0 9.01171 0C9.23051 0 9.48058 0.0616968 9.66813 0.215939L17.6514 7.14141C17.9015 7.35735 18.0265 7.60413 17.9953 7.88177Z" fill="#9DD2CC"/>
</svg>
