<svg width="27" height="27" viewBox="0 0 27 27" fill="none" xmlns="http://www.w3.org/2000/svg">
<path fill-rule="evenodd" clip-rule="evenodd" d="M15.1649 18.8746C15.5554 19.2651 16.1886 19.2651 16.5791 18.8746L16.6996 18.7541C17.0898 18.3639 17.0901 17.7313 16.7003 17.3407L12.4234 13.0544L16.7003 8.7682C17.0901 8.37755 17.0898 7.74498 16.6996 7.35476L16.5791 7.2343C16.1886 6.84377 15.5554 6.84377 15.1649 7.2343L9.34477 13.0544L15.1649 18.8746Z" fill="white" fill-opacity="0.7"/>
<mask id="mask0_1_38" style="mask-type:luminance" maskUnits="userSpaceOnUse" x="9" y="6" width="8" height="14">
<path fill-rule="evenodd" clip-rule="evenodd" d="M15.1649 18.8746C15.5554 19.2651 16.1886 19.2651 16.5791 18.8746L16.6996 18.7541C17.0898 18.3639 17.0901 17.7313 16.7003 17.3407L12.4234 13.0544L16.7003 8.7682C17.0901 8.37755 17.0898 7.74498 16.6996 7.35476L16.5791 7.2343C16.1886 6.84377 15.5554 6.84377 15.1649 7.2343L9.34477 13.0544L15.1649 18.8746Z" fill="white"/>
</mask>
<g mask="url(#mask0_1_38)">
<rect x="26.1089" y="26.1089" width="26.1089" height="26.1089" transform="rotate(180 26.1089 26.1089)" fill="white"/>
</g>
</svg>
