<svg width="16" height="14" viewBox="0 0 16 14" fill="none" xmlns="http://www.w3.org/2000/svg">
<path d="M6.97748 0.95972C7.14551 0.637062 7.0188 0.240577 6.6965 0.0737792C6.37421 -0.0930183 5.97204 0.0327634 5.804 0.352686L3.23944 5.24997H0.881481C0.393912 5.24997 0 5.64099 0 6.12497C0 6.60896 0.393912 6.99998 0.881481 6.99998L2.31113 12.6738C2.50671 13.4531 3.2119 14 4.02176 14H11.8449C12.6548 14 13.36 13.4531 13.5555 12.6738L14.9852 6.99998C15.4728 6.99998 15.8667 6.60896 15.8667 6.12497C15.8667 5.64099 15.4728 5.24997 14.9852 5.24997H12.6272L10.0627 0.352686C9.89463 0.0327634 9.49521 -0.0930183 9.17016 0.0737792C8.84512 0.240577 8.72116 0.637062 8.88919 0.95972L11.137 5.24997H4.7297L6.97748 0.95972ZM5.28889 8.31248V10.9375C5.28889 11.1781 5.09056 11.375 4.84815 11.375C4.60574 11.375 4.40741 11.1781 4.40741 10.9375V8.31248C4.40741 8.07185 4.60574 7.87498 4.84815 7.87498C5.09056 7.87498 5.28889 8.07185 5.28889 8.31248ZM7.93333 7.87498C8.17574 7.87498 8.37407 8.07185 8.37407 8.31248V10.9375C8.37407 11.1781 8.17574 11.375 7.93333 11.375C7.69093 11.375 7.49259 11.1781 7.49259 10.9375V8.31248C7.49259 8.07185 7.69093 7.87498 7.93333 7.87498ZM11.4593 8.31248V10.9375C11.4593 11.1781 11.2609 11.375 11.0185 11.375C10.7761 11.375 10.5778 11.1781 10.5778 10.9375V8.31248C10.5778 8.07185 10.7761 7.87498 11.0185 7.87498C11.2609 7.87498 11.4593 8.07185 11.4593 8.31248Z" fill="#118787"/>
</svg>
