<svg width="17" height="15" viewBox="0 0 17 15" fill="none" xmlns="http://www.w3.org/2000/svg">
<path d="M7.47587 1.02827C7.6559 0.682567 7.52014 0.257761 7.17483 0.0790491C6.82951 -0.0996624 6.39861 0.0351037 6.21858 0.377878L3.47083 5.62497H0.944444C0.422049 5.62497 0 6.04391 0 6.56247C0 7.08103 0.422049 7.49997 0.944444 7.49997L2.47622 13.5791C2.68576 14.4141 3.44132 15 4.30903 15H12.691C13.5587 15 14.3142 14.4141 14.5238 13.5791L16.0556 7.49997C16.578 7.49997 17 7.08103 17 6.56247C17 6.04391 16.578 5.62497 16.0556 5.62497H13.5292L10.7814 0.377878C10.6014 0.0351037 10.1734 -0.0996624 9.82517 0.0790491C9.47691 0.257761 9.3441 0.682567 9.52413 1.02827L11.9325 5.62497H5.06753L7.47587 1.02827ZM5.66667 8.90623V11.7187C5.66667 11.9766 5.45417 12.1875 5.19444 12.1875C4.93472 12.1875 4.72222 11.9766 4.72222 11.7187V8.90623C4.72222 8.64841 4.93472 8.43748 5.19444 8.43748C5.45417 8.43748 5.66667 8.64841 5.66667 8.90623ZM8.5 8.43748C8.75972 8.43748 8.97222 8.64841 8.97222 8.90623V11.7187C8.97222 11.9766 8.75972 12.1875 8.5 12.1875C8.24028 12.1875 8.02778 11.9766 8.02778 11.7187V8.90623C8.02778 8.64841 8.24028 8.43748 8.5 8.43748ZM12.2778 8.90623V11.7187C12.2778 11.9766 12.0653 12.1875 11.8056 12.1875C11.5458 12.1875 11.3333 11.9766 11.3333 11.7187V8.90623C11.3333 8.64841 11.5458 8.43748 11.8056 8.43748C12.0653 8.43748 12.2778 8.64841 12.2778 8.90623Z" fill="#9DD2CC"/>
</svg>
