<svg width="17" height="15" viewBox="0 0 17 15" fill="none" xmlns="http://www.w3.org/2000/svg">
<path d="M17 6.96429C17 10.8114 13.1951 13.9286 8.50049 13.9286C7.26873 13.9286 6.10005 13.7143 5.04425 13.3292C4.64915 13.6205 4.00505 14.019 3.24142 14.3538C2.44459 14.702 1.48508 15 0.532204 15C0.316396 15 0.123829 14.8694 0.040826 14.6685C-0.042177 14.4676 0.0043047 14.24 0.15371 14.0859L0.16367 14.0759C0.173631 14.0658 0.186911 14.0525 0.206832 14.029C0.243353 13.9888 0.299795 13.9252 0.369518 13.8382C0.505643 13.6708 0.688249 13.423 0.874176 13.115C1.20619 12.5592 1.5216 11.8292 1.58468 11.0089C0.588646 9.87053 0.000984585 8.47433 0.000984585 6.96429C0.000984585 3.11719 3.80584 0 8.50049 0C13.1951 0 17 3.11719 17 6.96429Z" fill="#9DD2CC"/>
</svg>
