<svg width="360" height="51" viewBox="0 0 360 51" fill="none" xmlns="http://www.w3.org/2000/svg">
<path d="M66.0991 50.6501C33.9117 49.3703 8.46196 36.785 0 30.919L2.47955e-05 0L360 3.62322e-05V42.1177C339.883 38.7403 289.782 30.919 252.901 33.5854C196.569 37.6579 138.904 53.545 66.0991 50.6501Z" fill="#087C7D" fill-opacity="0.8"/>
<path d="M360 0.000167847H0V23.2506C51.7297 32.3461 50.7718 33.9511 123.577 32.3461C142.732 31.9238 234.221 15.7603 256.733 11.4801C274.742 8.0559 338.127 2.31861 360 0.000167847Z" fill="#0A787A" fill-opacity="0.7"/>
<path d="M111.123 41.4145C61.3094 41.4145 19.6381 18.9484 0 7.71534V0.000213623H360L360 26.4371C353.294 24.8324 315.934 19.0554 282.597 19.4833C240.926 20.0182 163.332 41.4145 111.123 41.4145Z" fill="#118787" fill-opacity="0.7"/>
</svg>
