<svg width="13" height="14" viewBox="0 0 13 14" fill="none" xmlns="http://www.w3.org/2000/svg">
<g clip-path="url(#clip0_1_108)">
<path d="M6.5 7C7.48509 7 8.42983 6.63125 9.1264 5.97487C9.82296 5.3185 10.2143 4.42826 10.2143 3.5C10.2143 2.57174 9.82296 1.6815 9.1264 1.02513C8.42983 0.368749 7.48509 0 6.5 0C5.51491 0 4.57017 0.368749 3.8736 1.02513C3.17704 1.6815 2.78571 2.57174 2.78571 3.5C2.78571 4.42826 3.17704 5.3185 3.8736 5.97487C4.57017 6.63125 5.51491 7 6.5 7ZM5.17388 8.3125C2.31562 8.3125 0 10.4945 0 13.1879C0 13.6363 0.385938 14 0.86183 14H12.1382C12.6141 14 13 13.6363 13 13.1879C13 10.4945 10.6844 8.3125 7.82612 8.3125H5.17388Z" fill="#118787"/>
</g>
<defs>
<clipPath id="clip0_1_108">
<rect width="13" height="14" fill="white"/>
</clipPath>
</defs>
</svg>
