<svg width="19" height="14" viewBox="0 0 19 14" fill="none" xmlns="http://www.w3.org/2000/svg">
<path d="M9.49835 0C6.8333 0 4.69929 1.15 3.14578 2.51875C1.60216 3.875 0.569786 5.5 0.0816335 6.61562C-0.0272112 6.8625 -0.0272112 7.1375 0.0816335 7.38437C0.569786 8.5 1.60216 10.125 3.14578 11.4812C4.69929 12.85 6.8333 14 9.49835 14C12.1634 14 14.2974 12.85 15.8509 11.4812C17.3945 10.1219 18.4269 8.5 18.9184 7.38437C19.0272 7.1375 19.0272 6.8625 18.9184 6.61562C18.4269 5.5 17.3945 3.875 15.8509 2.51875C14.2974 1.15 12.1634 0 9.49835 0ZM4.74876 7C4.74876 5.80653 5.24916 4.66193 6.13988 3.81802C7.03061 2.97411 8.23868 2.5 9.49835 2.5C10.758 2.5 11.9661 2.97411 12.8568 3.81802C13.7475 4.66193 14.2479 5.80653 14.2479 7C14.2479 8.19347 13.7475 9.33807 12.8568 10.182C11.9661 11.0259 10.758 11.5 9.49835 11.5C8.23868 11.5 7.03061 11.0259 6.13988 10.182C5.24916 9.33807 4.74876 8.19347 4.74876 7ZM9.49835 5C9.49835 6.10313 8.55173 7 7.38742 7C7.15324 7 6.92896 6.9625 6.71786 6.89687C6.53646 6.84062 6.32536 6.94688 6.33196 7.12813C6.34185 7.34375 6.37484 7.55937 6.43751 7.775C6.88938 9.375 8.62759 10.325 10.3163 9.89688C12.0051 9.46875 13.0078 7.82188 12.5559 6.22188C12.1898 4.925 10.9793 4.05312 9.63358 4C9.44228 3.99375 9.33014 4.19062 9.38951 4.36562C9.45877 4.56562 9.49835 4.77812 9.49835 5Z" fill="#9DD2CC"/>
</svg>
